<svg xmlns="http://www.w3.org/2000/svg" version="1.1" xmlns:xlink="http://www.w3.org/1999/xlink" xmlns:svgjs="http://svgjs.dev/svgjs" width="128" height="128" viewBox="0 0 128 128"><g transform="matrix(0.5597826086956522,0,0,0.5597826086956522,28.22958753332695,12.760752631578946)"><svg viewBox="0 0 66 95" data-background-color="#ffffff" preserveAspectRatio="xMidYMid meet" height="184" width="128" xmlns="http://www.w3.org/2000/svg" xmlns:xlink="http://www.w3.org/1999/xlink"><g id="tight-bounds" transform="matrix(1,0,0,1,-0.05128269149898301,-0.24049999999999727)"><svg viewBox="0 0 66.10256538299797 95.481" height="95.481" width="66.10256538299797"><g><svg viewBox="0 0 66.10256538299797 95.481" height="95.481" width="66.10256538299797"><g><svg viewBox="0 0 66.10256538299797 95.481" height="95.481" width="66.10256538299797"><g id="textblocktransform"><svg viewBox="0 0 66.10256538299797 95.481" height="95.481" width="66.10256538299797" id="textblock"><g><svg viewBox="0 0 66.10256538299797 95.481" height="95.481" width="66.10256538299797"><g><svg viewBox="0 0 66.10256538299797 95.481" height="95.481" width="66.10256538299797"><g><svg xmlns="http://www.w3.org/2000/svg" xmlns:xlink="http://www.w3.org/1999/xlink" version="1.1" x="0" y="0" viewBox="14.00010072635013 6 36.000182234328236 52" enable-background="new 0 0 64 64" xml:space="preserve" height="95.481" width="66.10256538299797" class="icon-icon-0" data-fill-palette-color="accent" id="icon-0"><g fill="#4b70f4" data-fill-palette-color="accent"><path d="M49.74 25.015C49.386 24.388 48.721 24 48 24H36V8.773C36 8.015 36 6 34 6c-0.702 0-1.354 0.369-1.715 0.971l-18 30c-0.371 0.618-0.38 1.388-0.025 2.015S15.279 40 16 40h12v16c0 0.899 0.6 1.688 1.466 1.928C29.644 57.977 29.823 58 30 58c0.689 0 1.347-0.357 1.715-0.971l18-30C50.086 26.411 50.096 25.642 49.74 25.015z" fill="#4b70f4" data-fill-palette-color="accent"></path></g></svg></g></svg></g></svg></g></svg></g></svg></g></svg></g><defs></defs></svg><rect width="66.10256538299797" height="95.481" fill="none" stroke="none" visibility="hidden"></rect></g></svg></g></svg>