<svg xmlns="http://www.w3.org/2000/svg" version="1.1" xmlns:xlink="http://www.w3.org/1999/xlink" xmlns:svgjs="http://svgjs.dev/svgjs" width="1000" height="184" viewBox="0 0 1000 184">
  <g transform="matrix(1,0,0,1,-0.6060606060606233,0.16786630542436853)"><svg viewBox="0 0 396 73" data-background-color="#ffffff" preserveAspectRatio="xMidYMid meet" height="184" width="1000" xmlns="http://www.w3.org/2000/svg" xmlns:xlink="http://www.w3.org/1999/xlink">
      <g id="tight-bounds" transform="matrix(1,0,0,1,0.2400000000000091,-0.06659913204336476)"><svg viewBox="0 0 395.52 73.13319826408673" height="73.13319826408673" width="395.52">
          <g><svg viewBox="0 0 469.2450555229187 86.76525" height="73.13319826408673" width="395.52">
              <g><svg viewBox="0 0 469.2450555229187 86.76525" height="86.76525" width="469.2450555229187">
                  <g id="textblocktransform"><svg viewBox="0 0 469.2450555229187 86.76525" height="86.76525" width="469.2450555229187" id="textblock">
                      <g><svg viewBox="0 0 469.2450555229187 86.76525" height="86.76525" width="469.2450555229187">
                          <g><svg>
                              <g></g>
                              <g></g>
                            </svg></g>
                          <g><svg>
                              <g></g>
                              <g><svg></svg></g>
                            </svg></g>
                          <g id="text-0"><svg viewBox="0 0 469.2450555229187 86.76525" height="86.76525" width="469.2450555229187">
                              <g><svg xmlns="http://www.w3.org/2000/svg" xmlns:xlink="http://www.w3.org/1999/xlink" version="1.1" x="0" y="0" viewBox="14.000100135803223 6 36.00018310546875 52" enable-background="new 0 0 64 64" xml:space="preserve" height="86.76525" width="60.0685555229187" class="icon-s-0" data-fill-palette-color="accent" id="s-0">
                                  <g fill="#000" data-fill-palette-color="accent">
                                    <path d="M49.74 25.015C49.386 24.388 48.721 24 48 24H36V8.773C36 8.015 36 6 34 6c-0.702 0-1.354 0.369-1.715 0.971l-18 30c-0.371 0.618-0.38 1.388-0.025 2.015S15.279 40 16 40h12v16c0 0.899 0.6 1.688 1.466 1.928C29.644 57.977 29.823 58 30 58c0.689 0 1.347-0.357 1.715-0.971l18-30C50.086 26.411 50.096 25.642 49.74 25.015z" fill="#000" data-fill-palette-color="accent"></path>
                                  </g>
                                </svg></g>
                              <g transform="matrix(1,0,0,1,73.7250555229187,16.027546648287867)"><svg width="395.52" viewBox="2.549999952316284 -35.400001525878906 258.4300231933594 35.75" height="54.71015670342426" data-palette-color="#000000">
                                  <path d="M15.5 0.35Q11.85 0.35 8.93-0.9 6-2.15 4.3-4.5 2.6-6.85 2.55-10.05L2.55-10.05 10.05-10.05Q10.2-7.9 11.58-6.65 12.95-5.4 15.35-5.4L15.35-5.4Q17.8-5.4 19.2-6.58 20.6-7.75 20.6-9.65L20.6-9.65Q20.6-11.2 19.65-12.2 18.7-13.2 17.28-13.78 15.85-14.35 13.35-15.05L13.35-15.05Q9.95-16.05 7.83-17.03 5.7-18 4.17-19.98 2.65-21.95 2.65-25.25L2.65-25.25Q2.65-28.35 4.2-30.65 5.75-32.95 8.55-34.18 11.35-35.4 14.95-35.4L14.95-35.4Q20.35-35.4 23.73-32.77 27.1-30.15 27.45-25.45L27.45-25.45 19.75-25.45Q19.65-27.25 18.23-28.43 16.8-29.6 14.45-29.6L14.45-29.6Q12.4-29.6 11.18-28.55 9.95-27.5 9.95-25.5L9.95-25.5Q9.95-24.1 10.88-23.18 11.8-22.25 13.18-21.68 14.55-21.1 17.05-20.35L17.05-20.35Q20.45-19.35 22.6-18.35 24.75-17.35 26.3-15.35 27.85-13.35 27.85-10.1L27.85-10.1Q27.85-7.3 26.4-4.9 24.95-2.5 22.15-1.07 19.35 0.35 15.5 0.35L15.5 0.35ZM55.85-34.9L62.85-34.9 62.85 0 55.85 0 55.85-14.85 40.9-14.85 40.9 0 33.9 0 33.9-34.9 40.9-34.9 40.9-20.55 55.85-20.55 55.85-34.9ZM93.45 0L91.15-6.65 77.25-6.65 74.95 0 67.59 0 80.15-34.95 88.3-34.95 100.84 0 93.45 0ZM79.15-12.25L89.25-12.25 84.2-26.85 79.15-12.25ZM131.64 0L123.54 0 115.84-13.6 112.54-13.6 112.54 0 105.54 0 105.54-34.9 118.64-34.9Q122.69-34.9 125.54-33.48 128.39-32.05 129.82-29.63 131.24-27.2 131.24-24.2L131.24-24.2Q131.24-20.75 129.24-17.98 127.24-15.2 123.29-14.15L123.29-14.15 131.64 0ZM112.54-29.1L112.54-18.85 118.39-18.85Q121.24-18.85 122.64-20.23 124.04-21.6 124.04-24.05L124.04-24.05Q124.04-26.45 122.64-27.78 121.24-29.1 118.39-29.1L118.39-29.1 112.54-29.1ZM157.84-29.25L144.59-29.25 144.59-20.5 156.34-20.5 156.34-14.95 144.59-14.95 144.59-5.7 157.84-5.7 157.84 0 137.59 0 137.59-34.95 157.84-34.95 157.84-29.25ZM189.64-24.1Q189.64-21.3 188.31-18.85 186.99-16.4 184.16-14.9 181.34-13.4 177.04-13.4L177.04-13.4 171.19-13.4 171.19 0 164.19 0 164.19-34.9 177.04-34.9Q181.09-34.9 183.94-33.5 186.79-32.1 188.21-29.65 189.64-27.2 189.64-24.1L189.64-24.1ZM176.74-19.05Q179.64-19.05 181.04-20.38 182.44-21.7 182.44-24.1L182.44-24.1Q182.44-29.2 176.74-29.2L176.74-29.2 171.19-29.2 171.19-19.05 176.74-19.05ZM218.29 0L215.99-6.65 202.09-6.65 199.79 0 192.44 0 204.99-34.95 213.14-34.95 225.69 0 218.29 0ZM203.99-12.25L214.09-12.25 209.04-26.85 203.99-12.25ZM242.58-34.9Q248.08-34.9 252.26-32.75 256.43-30.6 258.71-26.63 260.98-22.65 260.98-17.4L260.98-17.4Q260.98-12.15 258.71-8.22 256.43-4.3 252.26-2.15 248.08 0 242.58 0L242.58 0 230.38 0 230.38-34.9 242.58-34.9ZM242.33-5.95Q247.83-5.95 250.83-8.95 253.83-11.95 253.83-17.4L253.83-17.4Q253.83-22.85 250.83-25.93 247.83-29 242.33-29L242.33-29 237.38-29 237.38-5.95 242.33-5.95Z" opacity="1" transform="matrix(1,0,0,1,0,0)" fill="#000000" class="wordmark-text-0" data-fill-palette-color="primary"></path>
                                </svg></g>
                            </svg></g>
                        </svg></g>
                    </svg></g>
                </svg></g>
            </svg></g>
          <defs></defs>
        </svg>
        <rect width="395.52" height="73.13319826408673" fill="none" stroke="none" visibility="hidden"></rect>
      </g>
    </svg></g>
</svg>